General
Complete name                            : ../.././Samples/asf+wmv2+wmav2++juli_geilezeit_r300.wmv
Format                                   : Windows Media
File size                                : 8.38 MiB
Duration                                 : 3 min 42 s
Overall bit rate mode                    : Constant
Overall bit rate                         : 316 kb/s
Maximum Overall bit rate                 : 315 kb/s
Encoded date                             : UTC 2004-10-27 16:36:45.921
Copyright                                : by Universal Records 2004

Video
ID                                       : 2
Format                                   : WMV2
Codec ID                                 : WMV2
Codec ID/Info                            : Windows Media Video 8
Description of the codec                 : Windows Media Video V8
Duration                                 : 3 min 42 s
Bit rate mode                            : Constant
Bit rate                                 : 274 kb/s
Width                                    : 352 pixels
Height                                   : 288 pixels
Display aspect ratio                     : 1.222
Frame rate                               : 12.000 FPS
Bit depth                                : 8 bits
Bits/(Pixel*Frame)                       : 0.226
Stream size                              : 7.27 MiB (87%)

Audio
ID                                       : 1
Format                                   : WMA
Format version                           : Version 2
Codec ID                                 : 161
Codec ID/Info                            : Windows Media Audio
Description of the codec                 : Windows Media Audio 9 -  32 kbps, 44 kHz, stereo (A/V) 1-pass CBR
Duration                                 : 3 min 42 s
Bit rate mode                            : Constant
Bit rate                                 : 32.0 kb/s
Channel(s)                               : 2 channels
Sampling rate                            : 44.1 kHz
Bit depth                                : 16 bits
Stream size                              : 867 KiB (10%)


General
Complete name                            : ../.././Samples/asf+wmv2+wmav2++juli_geilezeit_r300.wmv
Format                                   : Windows Media
File size                                : 8.38 MiB
Duration                                 : 3 min 42 s
Overall bit rate mode                    : Constant
Overall bit rate                         : 316 kb/s
Maximum Overall bit rate                 : 315 kb/s
Encoded date                             : UTC 2004-10-27 16:36:45.921
Copyright                                : by Universal Records 2004

Video
ID                                       : 2
Format                                   : WMV2
Codec ID                                 : WMV2
Codec ID/Info                            : Windows Media Video 8
Description of the codec                 : Windows Media Video V8
Duration                                 : 3 min 42 s
Bit rate mode                            : Constant
Bit rate                                 : 274 kb/s
Width                                    : 352 pixels
Height                                   : 288 pixels
Display aspect ratio                     : 1.222
Frame rate                               : 12.000 FPS
Bit depth                                : 8 bits
Bits/(Pixel*Frame)                       : 0.226
Stream size                              : 7.27 MiB (87%)

Audio
ID                                       : 1
Format                                   : WMA
Format version                           : Version 2
Codec ID                                 : 161
Codec ID/Info                            : Windows Media Audio
Description of the codec                 : Windows Media Audio 9 -  32 kbps, 44 kHz, stereo (A/V) 1-pass CBR
Duration                                 : 3 min 42 s
Bit rate mode                            : Constant
Bit rate                                 : 32.0 kb/s
Channel(s)                               : 2 channels
Sampling rate                            : 44.1 kHz
Bit depth                                : 16 bits
Stream size                              : 867 KiB (10%)


